<?xml version="1.0" encoding="UTF-8" standalone="no"?>
<!-- Created with Inkscape (http://www.inkscape.org/) -->

<svg
   width="118.53333mm"
   height="135.46666mm"
   viewBox="0 0 118.53333 135.46666"
   version="1.1"
   id="svg5"
   inkscape:version="1.1.1 (3bf5ae0d25, 2021-09-20)"
   sodipodi:docname="logo.svg"
   xmlns:inkscape="http://www.inkscape.org/namespaces/inkscape"
   xmlns:sodipodi="http://sodipodi.sourceforge.net/DTD/sodipodi-0.dtd"
   xmlns="http://www.w3.org/2000/svg"
   xmlns:svg="http://www.w3.org/2000/svg">
  <sodipodi:namedview
     id="namedview7"
     pagecolor="#ffffff"
     bordercolor="#666666"
     borderopacity="1.0"
     inkscape:pageshadow="2"
     inkscape:pageopacity="0.0"
     inkscape:pagecheckerboard="0"
     inkscape:document-units="mm"
     showgrid="false"
     inkscape:zoom="0.77682379"
     inkscape:cx="214.33432"
     inkscape:cy="323.1106"
     inkscape:window-width="1888"
     inkscape:window-height="1058"
     inkscape:window-x="-6"
     inkscape:window-y="-6"
     inkscape:window-maximized="1"
     inkscape:current-layer="layer1"
     fit-margin-top="0"
     fit-margin-left="0"
     fit-margin-right="0"
     fit-margin-bottom="0" />
  <defs
     id="defs2" />
  <g
     inkscape:label="Layer 1"
     inkscape:groupmode="layer"
     id="layer1"
     transform="translate(-51.086546,-35.467353)">
    <path
       d="m 169.61988,56.63402 v 12.7 c 0,11.694583 -26.53771,21.166666 -59.26666,21.166666 -32.728966,0 -59.266674,-9.472083 -59.266674,-21.166666 v -12.7 c 0,-11.694583 26.537708,-21.166667 59.266674,-21.166667 32.72895,0 59.26666,9.472084 59.26666,21.166667 z m -14.49916,35.639375 c 5.50333,-1.957917 10.55687,-4.471459 14.49916,-7.567084 v 26.961039 c 0,11.69458 -26.53771,21.16667 -59.26666,21.16667 -32.728966,0 -59.266674,-9.47209 -59.266674,-21.16667 V 84.706311 c 3.942291,3.122084 8.995833,5.609167 14.499167,7.567084 11.879791,4.233333 27.701875,6.693958 44.767507,6.693958 17.06562,0 32.8877,-2.460625 44.7675,-6.693958 z M 51.086546,127.03964 c 3.942291,3.12209 8.995833,5.60917 14.499167,7.56709 11.879791,4.23333 27.701875,6.69395 44.767507,6.69395 17.06562,0 32.8877,-2.46062 44.7675,-6.69395 5.50333,-1.95792 10.55687,-4.47146 14.49916,-7.56709 v 22.72771 c 0,11.69458 -26.53771,21.16667 -59.26666,21.16667 -32.728966,0 -59.266674,-9.47209 -59.266674,-21.16667 z"
       id="path824"
       style="stroke-width:2.06375008;stroke-miterlimit:4;stroke-dasharray:none" />
    <path
       d="m 106.83118,68.274626 c 2.62041,-0.21955 4.9106,1.68907 5.12485,4.27084 l 0.77466,9.33517 17.76554,-1.48775 c 5.89225,-0.49343 11.0491,3.80413 11.53083,9.60944 l 3.29242,39.674434 c 0.48173,5.80534 -3.89558,10.9013 -9.78782,11.3947 l -45.006059,3.76898 c -5.89221,0.49343 -11.04906,-3.80407 -11.53082,-9.60938 l -3.2924,-39.674494 c -0.48176,-5.80531 3.89558,-10.90127 9.7878,-11.3947 l 17.765549,-1.48775 -0.77469,-9.3352 c -0.21444,-2.58172 1.72973,-4.84485 4.35014,-5.06429 z M 94.898091,125.67421 c -1.30279,0.10908 -2.28155,1.24858 -2.17507,2.53215 0.1064,1.28363 1.25962,2.24454 2.56241,2.13545 l 4.737539,-0.39674 c 1.30279,-0.10909 2.28156,-1.24856 2.17505,-2.53221 -0.1064,-1.28354 -1.25963,-2.24448 -2.562449,-2.13539 z m 14.212479,-1.19019 c -1.30282,0.10909 -2.28164,1.24859 -2.17507,2.53216 0.1064,1.2836 1.25959,2.24453 2.56241,2.13542 l 4.73745,-0.39671 c 1.30284,-0.10909 2.28163,-1.24859 2.1751,-2.53222 -0.1064,-1.28351 -1.2596,-2.2445 -2.56241,-2.13541 z m 14.21241,-1.19021 c -1.30279,0.10909 -2.28155,1.24858 -2.17504,2.53215 0.1064,1.28366 1.25962,2.24457 2.56238,2.13545 l 4.73751,-0.39674 c 1.30279,-0.10908 2.28158,-1.24853 2.17504,-2.53221 -0.1064,-1.28351 -1.2596,-2.2445 -2.56241,-2.13539 z M 101.63937,106.3096 a 5.8544989,5.9426488 83.791387 1 0 -11.843729,0.99179 5.8544989,5.9426488 83.791387 1 0 11.843729,-0.99179 z m 22.98716,3.95002 a 5.8545039,5.9426538 83.791387 1 0 -0.96834,-11.668984 5.8545039,5.9426538 83.791387 1 0 0.96834,11.668984 z m -55.352529,-5.93965 2.36876,-0.19835 2.32402,28.00548 -2.36872,0.19834 c -3.9232,0.32867 -7.36645,-2.54094 -7.68721,-6.40634 l -1.16203,-14.00269 c -0.32084,-3.86532 2.60196,-7.26791 6.52518,-7.59647 z m 80.537149,-6.744454 c 3.92322,-0.32839 7.36644,2.540934 7.68723,6.406224 l 1.162,14.00278 c 0.32085,3.86534 -2.60195,7.26794 -6.52518,7.59649 l -2.36875,0.19834 -2.32406,-28.005494 z"
       id="path823"
       style="fill:none;fill-opacity:1;stroke:#000000;stroke-width:7.9375;stroke-miterlimit:4;stroke-dasharray:none;stroke-opacity:1"
       inkscape:transform-center-x="1.3925014"
       inkscape:transform-center-y="-4.1079154" />
    <path
       d="m 106.83118,68.274626 c 2.62041,-0.21955 4.9106,1.68907 5.12485,4.27084 l 0.77466,9.33517 17.76554,-1.48775 c 5.89225,-0.49343 11.0491,3.80413 11.53083,9.60944 l 3.29242,39.674434 c 0.48173,5.80534 -3.89558,10.9013 -9.78782,11.3947 l -45.006059,3.76898 c -5.89221,0.49343 -11.04906,-3.80407 -11.53082,-9.60938 l -3.2924,-39.674494 c -0.48176,-5.80531 3.89558,-10.90127 9.7878,-11.3947 l 17.765549,-1.48775 -0.77469,-9.3352 c -0.21444,-2.58172 1.72973,-4.84485 4.35014,-5.06429 z M 94.898091,125.67421 c -1.30279,0.10908 -2.28155,1.24858 -2.17507,2.53215 0.1064,1.28363 1.25962,2.24454 2.56241,2.13545 l 4.737539,-0.39674 c 1.30279,-0.10909 2.28156,-1.24856 2.17505,-2.53221 -0.1064,-1.28354 -1.25963,-2.24448 -2.562449,-2.13539 z m 14.212479,-1.19019 c -1.30282,0.10909 -2.28164,1.24859 -2.17507,2.53216 0.1064,1.2836 1.25959,2.24453 2.56241,2.13542 l 4.73745,-0.39671 c 1.30284,-0.10909 2.28163,-1.24859 2.1751,-2.53222 -0.1064,-1.28351 -1.2596,-2.2445 -2.56241,-2.13541 z m 14.21241,-1.19021 c -1.30279,0.10909 -2.28155,1.24858 -2.17504,2.53215 0.1064,1.28366 1.25962,2.24457 2.56238,2.13545 l 4.73751,-0.39674 c 1.30279,-0.10908 2.28158,-1.24853 2.17504,-2.53221 -0.1064,-1.28351 -1.2596,-2.2445 -2.56241,-2.13539 z M 101.63937,106.3096 a 5.8544989,5.9426488 83.791387 1 0 -11.843729,0.99179 5.8544989,5.9426488 83.791387 1 0 11.843729,-0.99179 z m 22.98716,3.95002 a 5.8545039,5.9426538 83.791387 1 0 -0.96834,-11.668984 5.8545039,5.9426538 83.791387 1 0 0.96834,11.668984 z m -55.352529,-5.93965 2.36876,-0.19835 2.32402,28.00548 -2.36872,0.19834 c -3.9232,0.32867 -7.36645,-2.54094 -7.68721,-6.40634 l -1.16203,-14.00269 c -0.32084,-3.86532 2.60196,-7.26791 6.52518,-7.59647 z m 80.537149,-6.744454 c 3.92322,-0.32839 7.36644,2.540934 7.68723,6.406224 l 1.162,14.00278 c 0.32085,3.86534 -2.60195,7.26794 -6.52518,7.59649 l -2.36875,0.19834 -2.32406,-28.005494 z"
       id="path833"
       style="fill:none;fill-opacity:1;stroke:#ffffff;stroke-width:2.06375;stroke-miterlimit:4;stroke-dasharray:none;stroke-opacity:1"
       inkscape:transform-center-x="1.3925014"
       inkscape:transform-center-y="-4.1079154" />
  </g>
</svg>
